<svg width="3186.2" height="372.25" viewBox="0 0 3186.2 372.25" xmlns="http://www.w3.org/2000/svg" xmlns:xlink="http://www.w3.org/1999/xlink" overflow="hidden"><defs></defs><g><path d="M3104.96 289.21C3073.74 297.4 3041.23 292.86 3013.43 276.58 2985.6 260.28 2965.78 234.12 2957.64 202.91 2954.17 189.64 2962.12 176.08 2975.39 172.61 2977.5 172.05 2979.6 171.79 2981.69 171.79 2992.71 171.79 3002.78 179.19 3005.7 190.36 3010.5 208.73 3022.16 224.13 3038.54 233.72 3054.93 243.33 3074.05 245.96 3092.42 241.16 3105.66 237.63 3119.26 245.63 3122.72 258.91 3126.18 272.18 3118.23 285.74 3104.96 289.21Z" fill="#147BD1"/><path d="M3143.93 0 3085.95 0C2963.04 0 2855.61 67.55 2798.83 167.48 2742.05 67.55 2634.63 0 2511.72 0L2453.74 0C2430.4 0 2411.47 18.93 2411.47 42.27 2411.47 65.61 2430.4 84.54 2453.74 84.54L2511.72 84.54C2640.93 84.54 2747.13 184.91 2756.48 311.77 2756.15 317.8 2755.98 323.86 2755.98 329.97 2755.98 353.31 2774.91 372.24 2798.25 372.24 2798.45 372.24 2798.64 372.23 2798.84 372.23 2799.04 372.23 2799.23 372.24 2799.43 372.24 2822.77 372.24 2841.7 353.31 2841.7 329.97 2841.7 323.86 2841.53 317.8 2841.2 311.77 2850.54 184.9 2956.74 84.54 3085.96 84.54L3143.94 84.54C3167.28 84.54 3186.21 65.61 3186.21 42.27 3186.21 18.93 3167.27 0 3143.93 0Z" fill="#147BD1"/><path d="M2584.24 276.58C2556.44 292.89 2523.91 297.38 2492.7 289.21 2479.43 285.74 2471.48 272.18 2474.95 258.91 2478.41 245.63 2492.02 237.63 2505.25 241.16 2543.17 251.1 2582.06 228.29 2591.98 190.36 2594.89 179.19 2604.96 171.79 2615.99 171.79 2618.07 171.79 2620.18 172.05 2622.29 172.61 2635.56 176.08 2643.51 189.64 2640.04 202.91 2631.89 234.12 2612.07 260.29 2584.24 276.58Z" fill="#147BD1"/></g><g><path d="M714.62 238.2C698.34 210.33 672.14 190.55 640.96 182.41 609.76 174.25 577.24 178.74 549.42 195.05 537.58 201.98 533.61 217.19 540.55 229.03 541.64 230.91 542.95 232.58 544.43 234.06 552.22 241.85 564.58 243.74 574.53 237.91 590.91 228.31 610.05 225.67 628.41 230.47 646.79 235.26 662.18 246.93 671.77 263.31 678.64 275.17 693.91 279.13 705.75 272.18 717.58 265.25 721.55 250.04 714.62 238.2Z" fill="#F8CFA9"/><path d="M732.46 0 674.48 0C551.57 0 444.14 67.55 387.37 167.48 330.59 67.55 223.16 0 100.25 0L42.27 0C18.93 0 0 18.93 0 42.27 0 65.61 18.93 84.54 42.27 84.54L100.25 84.54C229.46 84.54 335.66 184.91 345.01 311.77 344.68 317.8 344.51 323.86 344.51 329.97 344.51 353.31 363.44 372.24 386.78 372.24 386.98 372.24 387.17 372.23 387.37 372.23 387.57 372.23 387.76 372.24 387.96 372.24 411.3 372.24 430.23 353.31 430.23 329.97 430.23 323.86 430.06 317.8 429.73 311.77 439.07 184.9 545.27 84.54 674.49 84.54L732.47 84.54C755.81 84.54 774.74 65.61 774.74 42.27 774.74 18.93 755.81 0 732.46 0Z" fill="#F8CFA9"/><path d="M133.77 182.41C102.58 190.54 76.4 210.37 60.11 238.21 53.18 250.05 57.15 265.26 68.98 272.19 80.82 279.14 96.1 275.17 102.96 263.32 122.74 229.48 166.38 218.1 200.21 237.91 210.16 243.75 222.52 241.86 230.31 234.06 231.78 232.59 233.09 230.91 234.19 229.03 241.12 217.19 237.15 201.98 225.32 195.05 197.48 178.74 164.97 174.25 133.77 182.41Z" fill="#F8CFA9"/></g><g><path d="M1896.65 280.22C1896.49 247.94 1883.68 217.72 1860.76 195.08 1837.82 172.41 1807.42 160.04 1775.16 160.26 1761.44 160.35 1750.4 171.53 1750.49 185.25 1750.5 187.43 1750.79 189.53 1751.33 191.54 1754.18 202.19 1763.94 210 1775.48 209.92 1794.47 209.8 1812.36 217.08 1825.86 230.42 1839.38 243.76 1846.87 261.55 1846.99 280.54 1847.01 294.24 1858.25 305.31 1871.98 305.21 1885.7 305.12 1896.74 293.94 1896.65 280.22Z"/><path d="M1931.75 0 1873.77 0C1750.86 0 1643.43 67.55 1586.65 167.48 1529.88 67.55 1422.45 0 1299.54 0L1241.56 0C1218.22 0 1199.29 18.93 1199.29 42.27 1199.29 65.61 1218.22 84.54 1241.56 84.54L1299.54 84.54C1428.75 84.54 1534.95 184.91 1544.3 311.77 1543.97 317.8 1543.8 323.86 1543.8 329.97 1543.8 353.31 1562.73 372.24 1586.07 372.24 1586.27 372.24 1586.46 372.23 1586.66 372.23 1586.86 372.23 1587.05 372.24 1587.25 372.24 1610.59 372.24 1629.52 353.31 1629.52 329.97 1629.52 323.86 1629.35 317.8 1629.02 311.77 1638.36 184.9 1744.56 84.54 1873.78 84.54L1931.76 84.54C1955.1 84.54 1974.03 65.61 1974.03 42.27 1974.03 18.93 1955.09 0 1931.75 0Z"/><path d="M1312.54 195.07C1289.59 217.71 1276.84 247.97 1276.65 280.22 1276.56 293.94 1287.61 305.12 1301.32 305.21 1315.04 305.31 1326.29 294.23 1326.31 280.54 1326.52 241.34 1358.62 209.67 1397.82 209.91 1409.36 209.99 1419.11 202.17 1421.97 191.53 1422.51 189.52 1422.81 187.42 1422.81 185.24 1422.9 171.52 1411.85 160.34 1398.14 160.25 1365.88 160.04 1335.48 172.4 1312.54 195.07Z"/></g><circle cx="1393.95" cy="270.5" r="28.86"/><circle cx="1780.81" cy="270.5" r="28.86"/></svg>